<svg width="16" height="16" viewBox="0 0 16 16" fill="none" xmlns="http://www.w3.org/2000/svg">
<path d="M13.502 12.5163C13.444 12.5004 13.3737 12.5092 13.2928 12.5391C12.21 13.0348 11.1571 13.3881 10.134 13.5973C7.92446 14.0473 5.77114 13.8118 3.67583 12.8924C3.094 12.6358 2.2854 12.2034 1.25005 11.5917C1.22337 11.5706 1.19083 11.5583 1.15689 11.5565C1.12173 11.5547 1.09185 11.5583 1.06372 11.5723C1.0356 11.5864 1.0145 11.604 0.998683 11.6268C0.982863 11.6497 0.979347 11.6813 0.991652 11.7217C1.0022 11.7604 1.02857 11.8043 1.07251 11.8518C1.25532 12.0663 1.48208 12.2948 1.75103 12.5374C2.01997 12.7799 2.37681 13.0542 2.82153 13.36C3.26626 13.6659 3.73208 13.9383 4.21548 14.1756C4.70064 14.4129 5.26314 14.6133 5.90474 14.775C6.54634 14.9368 7.18794 15.0176 7.82779 15.0176C8.46411 15.0176 9.08286 14.9526 9.68228 14.826C10.2834 14.6977 10.7897 14.5465 11.2028 14.3708C11.6141 14.1967 11.9938 14.0016 12.3418 13.7907C12.6899 13.5797 12.9465 13.4004 13.1135 13.2581C13.2805 13.1139 13.4001 13.0014 13.4686 12.917C13.5495 12.8168 13.5899 12.7307 13.5899 12.6551C13.5917 12.576 13.56 12.5303 13.502 12.5163ZM8.27075 5.11938C8.00357 5.14224 7.68189 5.19145 7.30396 5.26528C6.92603 5.33735 6.57622 5.42876 6.25279 5.53599C5.92935 5.64321 5.59888 5.79263 5.26314 5.98247C4.92564 6.17231 4.63911 6.39028 4.40181 6.63286C4.1645 6.87544 3.97114 7.17954 3.81997 7.54692C3.6688 7.91255 3.59321 8.31509 3.59321 8.75454C3.59321 9.23091 3.67583 9.65454 3.84458 10.029C4.01157 10.4034 4.23482 10.6969 4.51607 10.9149C4.79556 11.1329 5.11372 11.3034 5.46528 11.4282C5.81685 11.553 6.1895 11.6092 6.57622 11.5934C6.96294 11.5776 7.34087 11.5178 7.70825 11.4124C8.07388 11.3086 8.41841 11.1417 8.73833 10.9149C9.05825 10.6881 9.32017 10.4192 9.52583 10.1116C9.60142 10.2276 9.66821 10.3137 9.72798 10.37L9.88091 10.5264C9.98286 10.6301 10.1393 10.7831 10.3502 10.9852C10.5594 11.1874 10.7739 11.3842 10.9883 11.5776L12.8235 9.82153L12.718 9.7354C12.6424 9.67739 12.5528 9.59478 12.4508 9.48403C12.3489 9.37505 12.2469 9.25376 12.1485 9.12368C12.0483 8.9936 11.9622 8.84067 11.8901 8.66841C11.818 8.49614 11.7811 8.32915 11.7811 8.16743V3.5479C11.7811 3.37036 11.7477 3.17876 11.6809 2.97134C11.6124 2.76567 11.4928 2.54067 11.317 2.2981C11.1413 2.05552 10.9233 1.83755 10.6631 1.64771C10.4012 1.45786 10.0532 1.29614 9.61548 1.16606C9.17954 1.03599 8.69087 0.970947 8.15298 0.970947C7.60279 0.970947 7.09126 1.03599 6.61314 1.16255C6.13677 1.29087 5.72896 1.46138 5.38794 1.67583C5.04868 1.89028 4.75689 2.13813 4.51431 2.42114C4.27173 2.70415 4.09068 2.99946 3.9729 3.30708C3.85513 3.6147 3.79536 3.92583 3.79536 4.24048L6.17193 4.44966C6.26861 4.16138 6.39868 3.91177 6.55864 3.69731C6.72036 3.48286 6.87329 3.32817 7.01216 3.23149C7.15278 3.13481 7.30396 3.05747 7.46392 2.99946C7.62564 2.94146 7.73462 2.91157 7.79087 2.90454C7.84712 2.89927 7.89107 2.89751 7.92447 2.89751C8.3938 2.89751 8.719 3.03638 8.90181 3.31235C9.01607 3.47935 9.07232 3.73247 9.07232 4.07349V5.06841C8.80513 5.07896 8.53794 5.09653 8.27075 5.11938ZM9.07407 7.7895C9.07407 8.0813 9.0354 8.34673 8.95982 8.58052C8.7981 9.09204 8.49048 9.41372 8.03872 9.5438C7.64497 9.65981 7.27056 9.60181 6.91548 9.37153C6.53755 9.12544 6.34946 8.77739 6.34946 8.32915C6.34946 7.97935 6.43736 7.68052 6.61314 7.43091C6.78892 7.18306 7.02271 6.99673 7.31626 6.87368C7.60982 6.75063 7.89634 6.66274 8.17759 6.61177C8.45708 6.55903 8.75767 6.52739 9.07407 6.51685V7.7895ZM14.9663 11.6374C14.8907 11.5424 14.6868 11.4809 14.3528 11.4493C14.0188 11.4176 13.7288 11.4194 13.4792 11.4563C13.2102 11.4879 12.9325 11.5653 12.6477 11.6918C12.3612 11.8167 12.2364 11.9221 12.268 12.0047L12.2803 12.0276L12.2961 12.0399L12.3208 12.0434H12.4016C12.4157 12.0434 12.4333 12.0417 12.4579 12.0399C12.4825 12.0381 12.5053 12.0346 12.5264 12.0329C12.5475 12.0311 12.5774 12.0276 12.6161 12.0258C12.653 12.0241 12.6881 12.0188 12.7215 12.0135C12.7268 12.0135 12.7866 12.0083 12.9026 11.9977C13.0186 11.9872 13.103 11.9801 13.154 11.9749C13.2049 11.9696 13.2911 11.9643 13.4088 11.959C13.5266 11.9538 13.6215 11.9538 13.6918 11.959C13.7622 11.9643 13.8413 11.9713 13.9309 11.9784C14.0206 11.9854 14.0926 12.0012 14.1489 12.0258C14.2051 12.0487 14.2473 12.0786 14.2737 12.1155C14.3651 12.2315 14.3475 12.4881 14.2209 12.8872C14.0944 13.2862 13.9749 13.6043 13.8624 13.8399C13.8131 13.9401 13.8131 14.0016 13.8624 14.028C13.9116 14.0543 13.9801 14.0297 14.0715 13.9577C14.3458 13.7432 14.5743 13.4198 14.7588 12.9856C14.8661 12.729 14.9434 12.4618 14.9891 12.1823C15.0313 11.9028 15.0243 11.7217 14.9663 11.6374Z" fill="#DDE2FF"/>
</svg>
