<svg width="56" height="56" viewBox="0 0 56 56" fill="none" xmlns="http://www.w3.org/2000/svg">
<path d="M26.3125 25.2188C25.5875 25.525 25.0063 25.9813 24.575 26.5938C24.1438 27.2062 23.925 27.9438 23.925 28.8125C23.925 29.925 24.3938 30.7812 25.325 31.3875C26.2063 31.9563 27.1312 32.1 28.1 31.8125C29.2187 31.4875 29.975 30.6938 30.375 29.4313C30.5625 28.85 30.6562 28.2 30.6562 27.475V24.3375C29.8687 24.3625 29.1313 24.4375 28.4375 24.5688C27.7437 24.7 27.0375 24.9188 26.3125 25.2188ZM28 0C12.5375 0 0 12.5375 0 28C0 43.4625 12.5375 56 28 56C43.4625 56 56 43.4625 56 28C56 12.5375 43.4625 0 28 0ZM30.2375 16.4188C29.7875 15.7375 28.9813 15.3937 27.8188 15.3937C27.7375 15.3937 27.6312 15.4 27.4875 15.4125C27.35 15.425 27.075 15.5062 26.6812 15.6437C26.2858 15.7852 25.9098 15.9763 25.5625 16.2125C25.2188 16.45 24.8438 16.8375 24.4375 17.3625C24.0375 17.8937 23.7188 18.5125 23.4813 19.225L17.6063 18.7C17.6063 17.925 17.7563 17.1562 18.0438 16.3937C18.3375 15.6312 18.7812 14.9 19.3813 14.2062C19.9813 13.5062 20.7 12.8937 21.5375 12.3687C22.375 11.8375 23.3875 11.4188 24.5625 11.1C25.7437 10.7812 27.0063 10.625 28.3688 10.625C29.7 10.625 30.9062 10.7875 31.9813 11.1062C33.0563 11.4312 33.925 11.825 34.5687 12.3C35.189 12.7475 35.7352 13.2895 36.1875 13.9062C36.6188 14.5063 36.9188 15.0625 37.0875 15.575C37.2563 16.0875 37.3375 16.5562 37.3375 17V28.4062C37.3375 28.8062 37.425 29.2188 37.6063 29.6437C37.7875 30.0687 38 30.4437 38.2438 30.7687C38.4875 31.0938 38.7375 31.3875 38.9938 31.6625C39.25 31.9312 39.4688 32.1437 39.6562 32.2812L39.9125 32.4938L35.3812 36.8312C34.85 36.35 34.325 35.8688 33.8063 35.3688C33.2875 34.8688 32.9 34.4937 32.65 34.2375L32.2687 33.85C32.1187 33.7062 31.9562 33.4938 31.7687 33.2125C31.2625 33.975 30.6125 34.6375 29.825 35.2C29.0312 35.7625 28.1812 36.175 27.2812 36.4313C26.375 36.6875 25.4437 36.8375 24.4875 36.875C23.5312 36.9125 22.6125 36.7812 21.7437 36.4688C20.875 36.1562 20.0875 35.7375 19.3937 35.2C18.7 34.6625 18.15 33.9375 17.7375 33.0125C17.325 32.0875 17.1187 31.0437 17.1187 29.8625C17.1187 28.775 17.3062 27.7812 17.675 26.8813C18.05 25.975 18.525 25.225 19.1125 24.625C19.7 24.025 20.4062 23.4875 21.2375 23.0187C22.0687 22.55 22.8875 22.1812 23.6875 21.9125C24.4875 21.65 25.35 21.425 26.2812 21.2437C27.2125 21.0625 28.0063 20.9438 28.6688 20.8875C29.3313 20.8313 29.9937 20.7875 30.6562 20.7625V18.3C30.6562 17.4562 30.5125 16.8313 30.2375 16.4188ZM41.5187 40.1437C41.3438 40.35 41.05 40.6312 40.6375 40.9875C40.225 41.3438 39.5875 41.7812 38.7313 42.3063C37.875 42.8313 36.9313 43.3062 35.9188 43.7375C34.9 44.1688 33.65 44.5438 32.1625 44.8625C30.6812 45.1812 29.15 45.3375 27.5812 45.3375C25.9937 45.3375 24.4125 45.1375 22.825 44.7375C21.2375 44.3375 19.85 43.8438 18.65 43.2562C17.4562 42.6687 16.3 41.9938 15.2062 41.2438C14.1062 40.4875 13.225 39.8125 12.5562 39.2125C11.8937 38.6125 11.3313 38.0438 10.8813 37.5187C10.775 37.4 10.7062 37.2938 10.6812 37.2C10.6562 37.1063 10.6625 37.025 10.7 36.9688C10.7375 36.9125 10.7937 36.8687 10.8625 36.8312C10.9372 36.7981 11.0193 36.7853 11.1005 36.7941C11.1817 36.8028 11.2591 36.8329 11.325 36.8812C13.8813 38.3937 15.8813 39.4625 17.3188 40.0938C22.5 42.3688 27.8188 42.95 33.275 41.8375C35.8063 41.3188 38.4062 40.45 41.0812 39.225C41.2812 39.15 41.4562 39.1313 41.6 39.1688C41.7437 39.2062 41.8187 39.3187 41.8187 39.5062C41.8187 39.6812 41.7188 39.9 41.5187 40.1437ZM45.2625 38.3312C45.15 39.025 44.9562 39.6812 44.6937 40.3187C44.2437 41.3875 43.675 42.1937 43 42.7188C42.775 42.9 42.6 42.9562 42.4813 42.8937C42.3625 42.8312 42.3625 42.675 42.4813 42.4313C42.7625 41.85 43.0563 41.0688 43.3688 40.075C43.6813 39.0875 43.725 38.45 43.5 38.1688C43.4313 38.075 43.3312 38.0062 43.1875 37.9437C43.05 37.8875 42.8688 37.85 42.65 37.825C42.4313 37.8 42.2313 37.7875 42.0625 37.775C41.8875 37.7625 41.6562 37.7625 41.3625 37.775C41.0687 37.7875 40.8625 37.8 40.7313 37.8125C40.3753 37.8472 40.019 37.8785 39.6625 37.9062C39.5812 37.9188 39.4938 37.9313 39.4062 37.9375C39.3125 37.9437 39.2375 37.95 39.1875 37.9562L39.0187 37.975C38.9562 37.9812 38.9125 37.9875 38.8812 37.9875H38.6813L38.6188 37.975L38.5812 37.9437L38.55 37.8875C38.4688 37.6813 38.7812 37.425 39.4875 37.1125C40.1937 36.8 40.8813 36.6063 41.5438 36.5312C42.1562 36.4375 42.875 36.4375 43.7 36.5125C44.525 36.5875 45.0312 36.7437 45.2188 36.975C45.3625 37.1937 45.375 37.6437 45.2625 38.3312Z" fill="#F56600"/>
</svg>
