<svg width="56" height="64" viewBox="0 0 56 64" fill="none" xmlns="http://www.w3.org/2000/svg">
<path d="M48.9506 12.5676C48.9066 12.2476 48.6268 12.0705 48.3956 12.051C48.1648 12.0317 43.2806 11.669 43.2806 11.669C43.2806 11.669 39.8884 8.29471 39.5161 7.92123C39.1436 7.54797 38.416 7.6615 38.1336 7.74479C38.092 7.75706 37.3925 7.97339 36.2353 8.33219C35.1021 5.06512 33.1023 2.06282 29.5842 2.06282C29.4871 2.06282 29.3871 2.06676 29.2871 2.07246C28.2866 0.746654 27.0471 0.170654 25.9766 0.170654C17.7811 0.170654 13.8657 10.4359 12.6381 15.6523C9.45349 16.641 7.19118 17.3439 6.90221 17.4349C5.12464 17.9936 5.06843 18.0497 4.83502 19.7279C4.65936 20.9985 0.00830078 57.0377 0.00830078 57.0377L36.2504 63.8414L55.8876 59.585C55.8876 59.585 48.9941 12.8876 48.9508 12.5676H48.9506ZM34.2322 8.9529L31.1655 9.90391C31.1666 9.68737 31.1677 9.47433 31.1677 9.24134C31.1677 7.21087 30.8864 5.57602 30.4351 4.28002C32.2479 4.50797 33.4552 6.5746 34.2322 8.9529ZM28.1864 4.68265C28.6904 5.94797 29.0181 7.76386 29.0181 10.2143C29.0181 10.3396 29.017 10.4543 29.0159 10.5702C27.0215 11.1892 24.8544 11.8612 22.6824 12.5354C23.9019 7.81953 26.1879 5.54183 28.1864 4.68265ZM25.7515 2.37317C26.1052 2.37317 26.4615 2.4935 26.8026 2.72868C24.176 3.96704 21.3607 7.08594 20.1718 13.3143L15.1655 14.8679C16.5581 10.1172 19.8647 2.37317 25.7512 2.37317H25.7515Z" fill="#95BF46"/>
<path d="M48.3955 12.0511C48.1648 12.0318 43.2805 11.669 43.2805 11.669C43.2805 11.669 39.8884 8.29478 39.516 7.9213C39.3767 7.78234 39.1888 7.7111 38.9924 7.68042L36.2521 63.8411L55.8875 59.5851C55.8875 59.5851 48.9938 12.8877 48.9505 12.5677C48.9065 12.2477 48.6268 12.0706 48.3955 12.0511Z" fill="#5E8E3E"/>
<path d="M29.5842 22.9227L27.1628 30.1394C27.1628 30.1394 25.0414 29.0049 22.4409 29.0049C18.6285 29.0049 18.4367 31.4021 18.4367 32.0061C18.4367 35.3021 27.0117 36.565 27.0117 44.2854C27.0117 50.3594 23.1667 54.2707 17.9823 54.2707C11.7611 54.2707 8.57959 50.3912 8.57959 50.3912L10.2454 44.8767C10.2454 44.8767 13.5157 47.6898 16.2752 47.6898C18.0784 47.6898 18.8118 46.2674 18.8118 45.228C18.8118 40.9286 11.7768 40.7369 11.7768 33.6721C11.7768 27.726 16.0363 21.9719 24.6345 21.9719C27.9475 21.9719 29.5842 22.9227 29.5842 22.9227Z" fill="white"/>
</svg>
