<svg width="26" height="22" viewBox="0 0 26 22" fill="none" xmlns="http://www.w3.org/2000/svg">
<path fill-rule="evenodd" clip-rule="evenodd" d="M16.9 0.60083C18.5978 0.60083 20.0434 1.68632 20.579 3.20081H9.10006C7.37617 3.20081 5.72288 3.88563 4.5039 5.10461C3.28492 6.32358 2.60011 7.97687 2.60011 9.70077V15.9797C1.83951 15.7106 1.18106 15.2123 0.715429 14.5534C0.249797 13.8946 -0.000110535 13.1075 0.000122233 12.3008V4.5008C0.000122233 3.46647 0.411011 2.47449 1.1424 1.74311C1.87379 1.01172 2.86576 0.60083 3.9001 0.60083H16.9ZM22.1 5.8008H9.10006C8.06573 5.8008 7.07375 6.21168 6.34236 6.94307C5.61098 7.67446 5.20009 8.66643 5.20009 9.70077V17.5007C5.20009 18.5351 5.61098 19.527 6.34236 20.2584C7.07375 20.9898 8.06573 21.4007 9.10006 21.4007H22.1C23.1343 21.4007 24.1263 20.9898 24.8577 20.2584C25.5891 19.527 26 18.5351 26 17.5007V9.70077C26 8.66643 25.5891 7.67446 24.8577 6.94307C24.1263 6.21168 23.1343 5.8008 22.1 5.8008ZM18.2 13.6007C18.2 14.2903 17.9261 14.9516 17.4385 15.4392C16.9509 15.9268 16.2896 16.2007 15.6 16.2007C14.9105 16.2007 14.2491 15.9268 13.7616 15.4392C13.274 14.9516 13 14.2903 13 13.6007C13 12.9112 13.274 12.2499 13.7616 11.7623C14.2491 11.2747 14.9105 11.0008 15.6 11.0008C16.2896 11.0008 16.9509 11.2747 17.4385 11.7623C17.9261 12.2499 18.2 12.9112 18.2 13.6007Z" fill="#828282"/>
</svg>
