<svg width="24" height="24" viewBox="0 0 24 24" fill="none" xmlns="http://www.w3.org/2000/svg">
<path d="M20 0H4C1.7908 0 0 1.7908 0 4V20C0 22.2092 1.7908 24 4 24H20C22.2092 24 24 22.2092 24 20V4C24 1.7908 22.2092 0 20 0ZM7.6 14.8H6.5788L4.5452 11.1476V14.8H3.6V9.2H4.5908L6.6548 12.9392V9.2H7.6V14.8ZM13.2 14.8H9.2V9.2H13.1V10.1468H10.2616V11.3884H12.9016V12.332H10.2616V13.8552H13.2V14.8ZM19.8672 14.8H18.692L17.6004 10.6132L16.5116 14.8H15.31L14 9.2H15.1344L15.9616 13.046L16.964 9.2H18.2812L19.2428 13.1116L20.0852 9.2H21.2L19.8672 14.8Z" fill="#828282"/>
</svg>
