<svg width="14" height="16" viewBox="0 0 14 16" fill="none" xmlns="http://www.w3.org/2000/svg">
<path d="M9.21446 15.9884L14 14.9461C14 14.9461 12.2738 3.20268 12.2596 3.12492C12.2453 3.04804 12.1831 2.9962 12.119 2.9962C12.055 2.9962 10.8393 2.90592 10.8393 2.90592C10.8393 2.90592 9.9953 2.05765 9.89303 1.96737C9.86901 1.94145 9.84233 1.92894 9.81654 1.91553L9.21446 15.9884ZM9.6111 1.8905C9.59687 1.8905 9.57286 1.90302 9.56041 1.90302C9.54618 1.90302 9.36742 1.95575 9.08639 2.04425C8.80358 1.22279 8.30466 0.463911 7.42244 0.463911H7.34595C7.08893 0.141229 6.783 0 6.51353 0C4.45382 0 3.46665 2.58503 3.16072 3.89631C2.36742 4.14212 1.79291 4.32179 1.72621 4.34771C1.27798 4.48894 1.26642 4.50145 1.21573 4.92693C1.16504 5.23441 0 14.3026 0 14.3026L8.99746 16L9.6111 1.8905V1.8905ZM7.26769 2.51978V2.61095C6.77055 2.76559 6.22005 2.93274 5.682 3.09989C5.98971 1.91732 6.56422 1.33721 7.06314 1.11821C7.19299 1.45341 7.26769 1.90302 7.26769 2.51978V2.51978ZM6.4495 0.553296C6.53843 0.553296 6.62826 0.578324 6.71897 0.644469C6.06797 0.951955 5.35027 1.73676 5.05501 3.30637C4.63834 3.44033 4.22002 3.56905 3.80015 3.69251C4.14611 2.49564 4.97853 0.553296 6.4495 0.553296V0.553296ZM6.80701 7.53609C6.80701 7.53609 6.26985 7.25452 5.6313 7.25452C4.67082 7.25452 4.63258 7.85877 4.63258 8.01341C4.63258 8.83665 6.783 9.15754 6.783 11.0999C6.783 12.6302 5.82251 13.608 4.51785 13.608C2.95617 13.608 2.16288 12.6302 2.16288 12.6302L2.58531 11.2411C2.58531 11.2411 3.40528 11.949 4.09452 11.949C4.17731 11.9524 4.25991 11.939 4.33741 11.9095C4.4149 11.8801 4.48569 11.8352 4.54555 11.7776C4.60541 11.7201 4.6531 11.651 4.68578 11.5744C4.71846 11.4979 4.73545 11.4156 4.73574 11.3323C4.73574 10.2516 2.96951 10.1989 2.96951 8.42547C2.96951 6.93363 4.03227 5.48022 6.19515 5.48022C7.02757 5.48022 7.43578 5.72335 7.43578 5.72335L6.80701 7.53609V7.53609ZM7.62698 1.02793C8.08766 1.08156 8.38292 1.60715 8.57324 2.19978C8.34379 2.27754 8.08677 2.35441 7.80574 2.4438V2.27665C7.80574 1.7752 7.74171 1.36313 7.62698 1.02793V1.02793Z" fill="#DDE2FF"/>
</svg>
